<?xml version="1.0" encoding="utf-8"?>
<!-- Generator: Adobe Illustrator 27.0.1, SVG Export Plug-In . SVG Version: 6.00 Build 0)  -->
<svg version="1.1" xmlns="http://www.w3.org/2000/svg" xmlns:xlink="http://www.w3.org/1999/xlink" x="0px" y="0px"
	 viewBox="0 0 799.92 799.92" style="enable-background:new 0 0 799.92 799.92;" xml:space="preserve">
<style type="text/css">
	.st0{fill-rule:evenodd;clip-rule:evenodd;fill:#FFFFFF;}
	.st1{fill-rule:evenodd;clip-rule:evenodd;fill:#FFFDFD;}
	.st2{fill-rule:evenodd;clip-rule:evenodd;fill:#FEFCFC;}
	.st3{fill-rule:evenodd;clip-rule:evenodd;fill:#FCFAFA;}
	.st4{fill-rule:evenodd;clip-rule:evenodd;fill:#FBF9F9;}
	.st5{fill-rule:evenodd;clip-rule:evenodd;fill:#F9F8F8;}
	.st6{fill-rule:evenodd;clip-rule:evenodd;fill:#F8F6F6;}
	.st7{fill-rule:evenodd;clip-rule:evenodd;fill:#F7F5F5;}
	.st8{fill-rule:evenodd;clip-rule:evenodd;fill:#F5F3F3;}
	.st9{fill-rule:evenodd;clip-rule:evenodd;fill:#F4F2F2;}
	.st10{fill-rule:evenodd;clip-rule:evenodd;fill:#F2F1F1;}
	.st11{fill-rule:evenodd;clip-rule:evenodd;fill:#F1EFEF;}
	.st12{fill-rule:evenodd;clip-rule:evenodd;fill:#EFEEEE;}
	.st13{fill-rule:evenodd;clip-rule:evenodd;fill:#EEEDED;}
	.st14{fill-rule:evenodd;clip-rule:evenodd;fill:#EDEBEB;}
	.st15{fill-rule:evenodd;clip-rule:evenodd;fill:#EBEAEA;}
	.st16{fill-rule:evenodd;clip-rule:evenodd;fill:#EAE8E8;}
	.st17{fill-rule:evenodd;clip-rule:evenodd;fill:#E8E7E7;}
	.st18{fill-rule:evenodd;clip-rule:evenodd;fill:#E7E6E6;}
	.st19{fill-rule:evenodd;clip-rule:evenodd;fill:#E6E4E4;}
	.st20{fill-rule:evenodd;clip-rule:evenodd;fill:#E4E3E3;}
	.st21{fill-rule:evenodd;clip-rule:evenodd;fill:#E3E2E2;}
	.st22{fill-rule:evenodd;clip-rule:evenodd;fill:#E1E0E0;}
	.st23{fill-rule:evenodd;clip-rule:evenodd;fill:#E0DFDF;}
	.st24{fill-rule:evenodd;clip-rule:evenodd;fill:#DFDDDD;}
	.st25{fill-rule:evenodd;clip-rule:evenodd;fill:#DDDCDC;}
	.st26{fill-rule:evenodd;clip-rule:evenodd;fill:#DCDBDB;}
	.st27{fill-rule:evenodd;clip-rule:evenodd;fill:#DAD9D9;}
	.st28{fill-rule:evenodd;clip-rule:evenodd;fill:#D9D8D8;}
	.st29{fill-rule:evenodd;clip-rule:evenodd;fill:#D7D7D7;}
	.st30{fill-rule:evenodd;clip-rule:evenodd;fill:#D6D5D5;}
	.st31{fill-rule:evenodd;clip-rule:evenodd;fill:#D5D4D4;}
	.st32{fill-rule:evenodd;clip-rule:evenodd;fill:#D3D2D2;}
	.st33{fill-rule:evenodd;clip-rule:evenodd;fill:#D2D1D1;}
	.st34{fill-rule:evenodd;clip-rule:evenodd;fill:#D0D0D0;}
	.st35{fill-rule:evenodd;clip-rule:evenodd;fill:#CFCECE;}
	.st36{fill-rule:evenodd;clip-rule:evenodd;fill:#CECDCD;}
	.st37{fill-rule:evenodd;clip-rule:evenodd;fill:#CCCCCC;}
	.st38{fill-rule:evenodd;clip-rule:evenodd;fill:#CBCACA;}
	.st39{fill-rule:evenodd;clip-rule:evenodd;fill:#C9C9C9;}
	.st40{fill-rule:evenodd;clip-rule:evenodd;fill:#C8C7C7;}
	.st41{fill-rule:evenodd;clip-rule:evenodd;fill:#C7C6C6;}
	.st42{fill-rule:evenodd;clip-rule:evenodd;fill:#C5C5C5;}
	.st43{fill-rule:evenodd;clip-rule:evenodd;fill:#C4C3C3;}
	.st44{fill-rule:evenodd;clip-rule:evenodd;fill:#C2C2C2;}
	.st45{fill-rule:evenodd;clip-rule:evenodd;fill:#C1C1C1;}
	.st46{fill-rule:evenodd;clip-rule:evenodd;fill:#BFBFBF;}
	.st47{fill-rule:evenodd;clip-rule:evenodd;fill:#BEBEBE;}
	.st48{fill-rule:evenodd;clip-rule:evenodd;fill:#BDBCBC;}
	.st49{fill-rule:evenodd;clip-rule:evenodd;fill:#BBBBBB;}
	.st50{fill-rule:evenodd;clip-rule:evenodd;fill:#BABABA;}
	.st51{fill-rule:evenodd;clip-rule:evenodd;fill:#B8B8B8;}
	.st52{fill-rule:evenodd;clip-rule:evenodd;fill:#B7B7B7;}
	.st53{fill:#4E4E4E;}
	.st54{fill:#C68B95;}
	.st55{fill:#EFCDD2;}
	.st56{fill-rule:evenodd;clip-rule:evenodd;fill:#DC9356;}
	.st57{fill-rule:evenodd;clip-rule:evenodd;fill:#C47B40;}
	.st58{fill-rule:evenodd;clip-rule:evenodd;fill:#F5E5D7;}
	.st59{fill-rule:evenodd;clip-rule:evenodd;fill:#4E4E4E;}
	
		.st60{fill-rule:evenodd;clip-rule:evenodd;fill:none;stroke:#4E4E4E;stroke-width:3.8401;stroke-linecap:round;stroke-linejoin:round;stroke-miterlimit:22.9256;}
	
		.st61{fill-rule:evenodd;clip-rule:evenodd;fill:none;stroke:#979797;stroke-width:2.4001;stroke-linecap:round;stroke-linejoin:round;stroke-miterlimit:22.9256;}
	.st62{fill-rule:evenodd;clip-rule:evenodd;fill:#ECC751;}
	.st63{fill-rule:evenodd;clip-rule:evenodd;fill:#DEAD4B;}
	.st64{fill-rule:evenodd;clip-rule:evenodd;fill:#B7CCCD;}
	.st65{fill-rule:evenodd;clip-rule:evenodd;fill:#A0BABB;}
	.st66{fill-rule:evenodd;clip-rule:evenodd;fill:#E9F3F4;}
	.st67{fill-rule:evenodd;clip-rule:evenodd;fill:#789D9B;}
	.st68{fill-rule:evenodd;clip-rule:evenodd;fill:#87542A;}
	.st69{fill-rule:evenodd;clip-rule:evenodd;fill:#D89DA5;}
	.st70{fill-rule:evenodd;clip-rule:evenodd;fill:#EFCDD2;}
	.st71{fill-rule:evenodd;clip-rule:evenodd;fill:#BC727D;}
	.st72{fill-rule:evenodd;clip-rule:evenodd;fill:#92B09A;}
	
		.st73{fill-rule:evenodd;clip-rule:evenodd;fill:none;stroke:#4E4E4E;stroke-width:4.7999;stroke-linecap:round;stroke-linejoin:round;stroke-miterlimit:22.9256;}
	.st74{fill-rule:evenodd;clip-rule:evenodd;fill:#7F9F86;}
	.st75{fill-rule:evenodd;clip-rule:evenodd;fill:#F7E4A4;}
	.st76{fill-rule:evenodd;clip-rule:evenodd;fill:#C4D2DB;}
	.st77{fill-rule:evenodd;clip-rule:evenodd;fill:#E7EFF5;}
	.st78{fill:none;stroke:#4D4D4D;stroke-width:3.8545;stroke-linecap:round;stroke-linejoin:round;stroke-miterlimit:10;}
	.st79{fill-rule:evenodd;clip-rule:evenodd;fill:#4D4D4D;}
	.st80{fill:none;stroke:#FFFFFF;stroke-width:3.8545;stroke-linecap:round;stroke-linejoin:round;stroke-miterlimit:10;}
	.st81{fill-rule:evenodd;clip-rule:evenodd;fill:#A7BCC9;}
	.st82{fill:none;stroke:#999999;stroke-width:2.4269;stroke-linecap:round;stroke-linejoin:round;stroke-miterlimit:10;}
	.st83{fill-rule:evenodd;clip-rule:evenodd;fill:none;stroke:#4E4E4E;stroke-miterlimit:10;}
	.st84{fill:none;stroke:#D79AA1;stroke-width:12;stroke-linecap:round;stroke-miterlimit:10;}
	.st85{fill-rule:evenodd;clip-rule:evenodd;fill:none;stroke:#4E4E4E;stroke-width:2;stroke-miterlimit:10;}
</style>
<g id="BACKGROUND">
</g>
<g id="DESIGNED_BY_FREEPIK">
</g>
<g id="OBJECTS">
	<path class="st54" d="M688.78,501.4c-0.75-15.15-3.87-28.17-8.52-39.39c-3.72-8.96-8.42-16.76-13.72-23.57
		c-24.66-31.69-62.15-41.8-72.27-45.86c-2.41-0.97-4.97-1.84-7.57-2.7c1.47-2.65,2.61-5.25,3.69-8.04c0.19-0.45,0.38-0.94,0.57-1.45
		c0.06-0.17,0.12-0.35,0.19-0.52c0.13-0.36,0.26-0.73,0.38-1.11c0.07-0.21,0.14-0.42,0.21-0.64c0.13-0.4,0.26-0.81,0.39-1.24
		c0.06-0.2,0.12-0.39,0.18-0.6c0.18-0.59,0.35-1.2,0.52-1.83c0.08-0.3,0.16-0.61,0.25-0.91c0.1-0.37,0.2-0.73,0.29-1.11
		c0.1-0.37,0.19-0.74,0.29-1.12c0.08-0.33,0.16-0.66,0.24-0.99c0.1-0.42,0.2-0.83,0.3-1.26c0.05-0.21,0.1-0.43,0.15-0.65
		c0.25-1.07,0.5-2.17,0.74-3.3c0.02-0.08,0.04-0.17,0.06-0.25c0.13-0.61,0.26-1.23,0.39-1.86c0.03-0.14,0.06-0.29,0.09-0.43
		c0.72-3.54,1.41-7.29,2.06-11.1v0c3.31-19.61,5.35-40.98,4.09-45.34c-2.04-7.12-50.82-1.17-67.18,1.17
		c-8.9,1.32-18.28,2.84-26.54,6.42c1.1,0.98,1.39,2.86-0.3,3.7c-20.04,9.91-30.45,36.35-25.31,57.61
		c4.97,20.55,17.08,39.45,36.69,48.56c2.74,1.27,0.36,5.32-2.37,4.05c-21.7-10.08-37.09-33.53-39.9-57.14
		c-2.35-19.73,6.41-42.4,23.14-53.92c-30.19-10.73-66.01-10.21-99.73-6.48c0,1.17-0.76,2.39-2.26,2.49
		c-35.65,2.3-71.82,12.08-99.66,35.45c-19.21,16.12-33.35,36.53-44.04,59.08c-0.67,1.41-2.07,1.45-3.09,0.79
		c-0.96-0.62-1.58-1.85-0.96-3.16c8.31-17.55,18.85-34.15,32.17-48.22c-1.3-2.19-2.76-4.28-4.37-6.25c-0.81,0.43-1.83,0.45-2.7-0.32
		c-17.74-15.57-39.6-24.8-63.2-26.32c-1.3-0.08-2.04-1.01-2.22-2.02c-2.6,1.45-2.39,6.77-2.75,9.4c-0.77,5.6-1.58,11.25-1.78,16.91
		c-0.04,1.19-0.03,2.37,0.01,3.54c0.64,3.81,1.33,7.56,2.06,11.1c0.03,0.14,0.06,0.29,0.09,0.43c0.13,0.63,0.26,1.25,0.39,1.86
		c0.02,0.08,0.04,0.17,0.05,0.25c0.24,1.13,0.49,2.23,0.74,3.3c0.05,0.22,0.1,0.44,0.15,0.65c0.1,0.43,0.2,0.84,0.3,1.26
		c0.08,0.33,0.16,0.67,0.24,0.99c0.09,0.38,0.19,0.75,0.28,1.12c0.1,0.38,0.2,0.74,0.3,1.11c0.08,0.31,0.16,0.62,0.25,0.91
		c0.17,0.63,0.35,1.24,0.52,1.82c0.06,0.21,0.13,0.41,0.19,0.61c0.13,0.42,0.25,0.83,0.38,1.22c0.07,0.22,0.14,0.43,0.21,0.64
		c0.13,0.38,0.26,0.75,0.39,1.11c0.06,0.17,0.12,0.35,0.19,0.52c0.19,0.51,0.38,1,0.57,1.45c3.5,9.05,7.59,16,21.61,29.72
		c0.49,0.48,1.02,0.94,1.57,1.39c0.17,0.14,0.36,0.28,0.54,0.42c0.39,0.3,0.78,0.6,1.19,0.89c0.22,0.15,0.44,0.3,0.66,0.45
		c0.4,0.27,0.81,0.53,1.24,0.78c0.23,0.14,0.45,0.28,0.68,0.41c0.48,0.28,0.98,0.55,1.48,0.81c0.18,0.09,0.35,0.19,0.53,0.28
		c0.58,0.29,1.17,0.57,1.77,0.84c-3.99,4.48-8.4,8.69-12.13,13.23c-49.82,60.66-15.72,155.91,47.18,191.74
		c2.73,1.56,5.5,3.01,8.29,4.4c0.61-0.96,1.82-1.55,3.11-0.83c18.69,10.43,41.66,14.11,62.53,17.54
		c12.94,2.13,25.95,3.99,39.01,5.28c0.95,0.09,2.1,0.64,2.26,1.72c1.19,7.95,2.37,15.89,3.56,23.84c0.05,0.36,0.03,0.69-0.04,0.99
		c11.11,1.86,60.75,10.16,60.72,10.35c3.11-9.29,6.94-24.38,8.63-31.2c4.41,0.2,7.86,0.16,9.63,0.13
		c33.25-0.64,92.76-12.79,96.3-13.13c0.36-0.03,1.37-0.14,2.12,0.47c0.35,0.28,0.62,0.68,0.77,1.17c3.3,10.64,6.56,21.31,9.91,31.95
		c6.55,1.09,62.23,10.4,62.29,10.61c0.41-1.22,0.83-2.51,1.26-3.91c3.61-11.74,30.45-116.39,34.13-130.73
		C687.58,537.14,689.73,520.57,688.78,501.4z"/>
	<path class="st55" d="M390.27,655.89c-0.11-0.74-0.22-1.47-0.33-2.21c-0.08-0.01-0.14-0.02-0.23-0.03
		c-4.36-0.47-8.72-0.98-13.06-1.55c-21.65-2.83-45.53-5.37-67.08-12.44c4.91,12.35,10.96,27.85,13.54,35.71
		c0,0,63,10.51,62.94,10.72c1.87-5.58,3.99-13.23,5.76-19.95C391.29,662.73,390.78,659.31,390.27,655.89z"/>
	<path class="st55" d="M524.64,654.26c2.19,6.75,4.77,14.67,6.88,21.12c0,0,34.16,5.7,52.14,8.79c-3.98-12.4-7.77-24.87-11.62-37.3
		C556.39,649.96,540.54,652.42,524.64,654.26z"/>
	<path class="st53" d="M328.04,692.76c5.3,15.15,9.85,18.16,26.56,17.36c6.08-0.29,17.82,0.85,22.92-3.1
		c3.76-2.92,6.62-15.3,8.41-20.59c0.04-0.11,0.08-0.23,0.11-0.34c0.07-0.21-62.94-10.72-62.94-10.72S327.73,691.88,328.04,692.76z"
		/>
	<path class="st53" d="M396.14,677.51c1.26,4.48,4.1,14.56,4.34,15.25c5.3,15.15,9.85,18.16,26.56,17.36
		c6.08-0.29,17.82,0.85,22.92-3.1c3.76-2.92,6.62-15.3,8.41-20.59c0.04-0.11,0.08-0.23,0.11-0.34c0.07-0.18-49.61-8.49-60.72-10.35
		C397.55,676.6,396.89,677.22,396.14,677.51z"/>
	<path class="st53" d="M588.45,698.74c-1.64-4.84-3.22-9.7-4.79-14.57c-17.99-3.09-52.14-8.79-52.14-8.79s4.63,16.5,4.94,17.38
		c5.31,15.15,9.86,18.16,26.57,17.36c6.08-0.29,17.82,0.85,22.92-3.1c1.47-1.14,2.81-3.74,3.99-6.8
		C589.29,700.02,588.72,699.55,588.45,698.74z"/>
	<path class="st53" d="M648.13,686.1c-0.06-0.21-55.74-9.52-62.29-10.61c2.32,7.35,4.67,14.7,7.14,22c0.25,0.74,0.13,1.37-0.19,1.85
		c4.51,9.45,9.99,11.46,23.91,10.78c6.08-0.29,17.82,0.85,22.92-3.1C643.46,704.04,646.36,691.18,648.13,686.1L648.13,686.1z"/>
	<g>
		<path class="st69" d="M454.35,371.21c55.7,21.95,121.41,12.8,169.59-29.31c48.19-42.11,66.05-106.01,51.76-164.14
			c-55.7-21.95-121.41-12.8-169.59,29.31C457.92,249.18,440.06,313.08,454.35,371.21z"/>
		<path class="st70" d="M497.85,333.2c31.21,10.36,69.33,2.78,98.57-22.78c29.25-25.56,41.86-62.31,35.78-94.63
			c-31.21-10.36-69.33-2.78-98.57,22.78C504.38,264.12,491.77,300.87,497.85,333.2z"/>
		<path class="st69" d="M291.14,371.21c-55.7,21.95-121.41,12.8-169.59-29.31C73.37,299.79,55.5,235.89,69.79,177.76
			c55.7-21.95,121.41-12.8,169.59,29.31C287.57,249.18,305.44,313.08,291.14,371.21z"/>
		<path class="st70" d="M247.64,333.19c-31.21,10.36-69.33,2.78-98.57-22.78c-29.25-25.56-41.86-62.31-35.78-94.63
			c31.21-10.36,69.33-2.78,98.57,22.78C241.11,264.12,253.73,300.87,247.64,333.19z"/>
		<circle class="st69" cx="370.61" cy="407.76" r="235.69"/>
		<circle class="st71" cx="370.61" cy="549.14" r="73.29"/>
		<path class="st59" d="M292.74,394.88c9,0,16.34-13.64,16.34-30.37c0-16.73-7.34-30.37-16.34-30.37c-9,0-16.34,13.64-16.34,30.37
			C276.41,381.23,283.75,394.88,292.74,394.88z"/>
		<path class="st59" d="M448.7,394.88c9,0,16.34-13.64,16.34-30.37c0-16.73-7.34-30.37-16.34-30.37c-9,0-16.34,13.64-16.34,30.37
			C432.36,381.23,439.7,394.88,448.7,394.88z"/>
		<path class="st0" d="M287.35,351.46c2.94,0,5.34-2.4,5.34-5.34c0-2.94-2.4-5.34-5.34-5.34c-2.94,0-5.34,2.4-5.34,5.34
			C282.01,349.06,284.41,351.46,287.35,351.46z"/>
		<path class="st0" d="M444.14,351.46c2.94,0,5.34-2.4,5.34-5.34c0-2.94-2.4-5.34-5.34-5.34c-2.94,0-5.34,2.4-5.34,5.34
			C438.8,349.06,441.19,351.46,444.14,351.46z"/>
		<circle class="st70" cx="370.61" cy="499.75" r="103.34"/>
		<g>
			<path class="st71" d="M348.18,505.62c7.42,0,13.48-11.46,13.48-25.52c0-14.06-6.05-25.52-13.48-25.52s-13.48,11.46-13.48,25.52
				C334.7,494.16,340.75,505.62,348.18,505.62z"/>
			<path class="st71" d="M393.04,505.62c7.42,0,13.48-11.46,13.48-25.52c0-14.06-6.05-25.52-13.48-25.52s-13.48,11.46-13.48,25.52
				C379.56,494.16,385.61,505.62,393.04,505.62z"/>
		</g>
	</g>
	<path class="st84" d="M657.96,453.83c15.07-17.86,36.19-22.62,48.36-14.7c10.44,6.8,17.03,24.72,9.91,33.29
		c-4.9,5.9-16.45,7.52-21.98,2.46c-7.19-6.57-3-23.28,5.06-27.49c8.22-4.3,18.12,5.66,25.04,0.84c4.1-2.86,4.68-9.19,4.52-14.1"/>
</g>
</svg>
