<?xml version="1.0" encoding="utf-8"?>
<!-- Generator: Adobe Illustrator 27.0.1, SVG Export Plug-In . SVG Version: 6.00 Build 0)  -->
<svg version="1.1" xmlns="http://www.w3.org/2000/svg" xmlns:xlink="http://www.w3.org/1999/xlink" x="0px" y="0px"
	 viewBox="0 0 799.92 799.92" style="enable-background:new 0 0 799.92 799.92;" xml:space="preserve">
<style type="text/css">
	.st0{fill-rule:evenodd;clip-rule:evenodd;fill:#FFFFFF;}
	.st1{fill-rule:evenodd;clip-rule:evenodd;fill:#FFFDFD;}
	.st2{fill-rule:evenodd;clip-rule:evenodd;fill:#FEFCFC;}
	.st3{fill-rule:evenodd;clip-rule:evenodd;fill:#FCFAFA;}
	.st4{fill-rule:evenodd;clip-rule:evenodd;fill:#FBF9F9;}
	.st5{fill-rule:evenodd;clip-rule:evenodd;fill:#F9F8F8;}
	.st6{fill-rule:evenodd;clip-rule:evenodd;fill:#F8F6F6;}
	.st7{fill-rule:evenodd;clip-rule:evenodd;fill:#F7F5F5;}
	.st8{fill-rule:evenodd;clip-rule:evenodd;fill:#F5F3F3;}
	.st9{fill-rule:evenodd;clip-rule:evenodd;fill:#F4F2F2;}
	.st10{fill-rule:evenodd;clip-rule:evenodd;fill:#F2F1F1;}
	.st11{fill-rule:evenodd;clip-rule:evenodd;fill:#F1EFEF;}
	.st12{fill-rule:evenodd;clip-rule:evenodd;fill:#EFEEEE;}
	.st13{fill-rule:evenodd;clip-rule:evenodd;fill:#EEEDED;}
	.st14{fill-rule:evenodd;clip-rule:evenodd;fill:#EDEBEB;}
	.st15{fill-rule:evenodd;clip-rule:evenodd;fill:#EBEAEA;}
	.st16{fill-rule:evenodd;clip-rule:evenodd;fill:#EAE8E8;}
	.st17{fill-rule:evenodd;clip-rule:evenodd;fill:#E8E7E7;}
	.st18{fill-rule:evenodd;clip-rule:evenodd;fill:#E7E6E6;}
	.st19{fill-rule:evenodd;clip-rule:evenodd;fill:#E6E4E4;}
	.st20{fill-rule:evenodd;clip-rule:evenodd;fill:#E4E3E3;}
	.st21{fill-rule:evenodd;clip-rule:evenodd;fill:#E3E2E2;}
	.st22{fill-rule:evenodd;clip-rule:evenodd;fill:#E1E0E0;}
	.st23{fill-rule:evenodd;clip-rule:evenodd;fill:#E0DFDF;}
	.st24{fill-rule:evenodd;clip-rule:evenodd;fill:#DFDDDD;}
	.st25{fill-rule:evenodd;clip-rule:evenodd;fill:#DDDCDC;}
	.st26{fill-rule:evenodd;clip-rule:evenodd;fill:#DCDBDB;}
	.st27{fill-rule:evenodd;clip-rule:evenodd;fill:#DAD9D9;}
	.st28{fill-rule:evenodd;clip-rule:evenodd;fill:#D9D8D8;}
	.st29{fill-rule:evenodd;clip-rule:evenodd;fill:#D7D7D7;}
	.st30{fill-rule:evenodd;clip-rule:evenodd;fill:#D6D5D5;}
	.st31{fill-rule:evenodd;clip-rule:evenodd;fill:#D5D4D4;}
	.st32{fill-rule:evenodd;clip-rule:evenodd;fill:#D3D2D2;}
	.st33{fill-rule:evenodd;clip-rule:evenodd;fill:#D2D1D1;}
	.st34{fill-rule:evenodd;clip-rule:evenodd;fill:#D0D0D0;}
	.st35{fill-rule:evenodd;clip-rule:evenodd;fill:#CFCECE;}
	.st36{fill-rule:evenodd;clip-rule:evenodd;fill:#CECDCD;}
	.st37{fill-rule:evenodd;clip-rule:evenodd;fill:#CCCCCC;}
	.st38{fill-rule:evenodd;clip-rule:evenodd;fill:#CBCACA;}
	.st39{fill-rule:evenodd;clip-rule:evenodd;fill:#C9C9C9;}
	.st40{fill-rule:evenodd;clip-rule:evenodd;fill:#C8C7C7;}
	.st41{fill-rule:evenodd;clip-rule:evenodd;fill:#C7C6C6;}
	.st42{fill-rule:evenodd;clip-rule:evenodd;fill:#C5C5C5;}
	.st43{fill-rule:evenodd;clip-rule:evenodd;fill:#C4C3C3;}
	.st44{fill-rule:evenodd;clip-rule:evenodd;fill:#C2C2C2;}
	.st45{fill-rule:evenodd;clip-rule:evenodd;fill:#C1C1C1;}
	.st46{fill-rule:evenodd;clip-rule:evenodd;fill:#BFBFBF;}
	.st47{fill-rule:evenodd;clip-rule:evenodd;fill:#BEBEBE;}
	.st48{fill-rule:evenodd;clip-rule:evenodd;fill:#BDBCBC;}
	.st49{fill-rule:evenodd;clip-rule:evenodd;fill:#BBBBBB;}
	.st50{fill-rule:evenodd;clip-rule:evenodd;fill:#BABABA;}
	.st51{fill-rule:evenodd;clip-rule:evenodd;fill:#B8B8B8;}
	.st52{fill-rule:evenodd;clip-rule:evenodd;fill:#B7B7B7;}
	.st53{fill:#4E4E4E;}
	.st54{fill:#C68B95;}
	.st55{fill:#EFCDD2;}
	.st56{fill-rule:evenodd;clip-rule:evenodd;fill:#DC9356;}
	.st57{fill-rule:evenodd;clip-rule:evenodd;fill:#C47B40;}
	.st58{fill-rule:evenodd;clip-rule:evenodd;fill:#F5E5D7;}
	.st59{fill-rule:evenodd;clip-rule:evenodd;fill:#4E4E4E;}
	
		.st60{fill-rule:evenodd;clip-rule:evenodd;fill:none;stroke:#4E4E4E;stroke-width:3.8401;stroke-linecap:round;stroke-linejoin:round;stroke-miterlimit:22.9256;}
	
		.st61{fill-rule:evenodd;clip-rule:evenodd;fill:none;stroke:#979797;stroke-width:2.4001;stroke-linecap:round;stroke-linejoin:round;stroke-miterlimit:22.9256;}
	.st62{fill-rule:evenodd;clip-rule:evenodd;fill:#ECC751;}
	.st63{fill-rule:evenodd;clip-rule:evenodd;fill:#DEAD4B;}
	.st64{fill-rule:evenodd;clip-rule:evenodd;fill:#B7CCCD;}
	.st65{fill-rule:evenodd;clip-rule:evenodd;fill:#A0BABB;}
	.st66{fill-rule:evenodd;clip-rule:evenodd;fill:#E9F3F4;}
	.st67{fill-rule:evenodd;clip-rule:evenodd;fill:#789D9B;}
	.st68{fill-rule:evenodd;clip-rule:evenodd;fill:#87542A;}
	.st69{fill-rule:evenodd;clip-rule:evenodd;fill:#D89DA5;}
	.st70{fill-rule:evenodd;clip-rule:evenodd;fill:#EFCDD2;}
	.st71{fill-rule:evenodd;clip-rule:evenodd;fill:#BC727D;}
	.st72{fill-rule:evenodd;clip-rule:evenodd;fill:#92B09A;}
	
		.st73{fill-rule:evenodd;clip-rule:evenodd;fill:none;stroke:#4E4E4E;stroke-width:4.7999;stroke-linecap:round;stroke-linejoin:round;stroke-miterlimit:22.9256;}
	.st74{fill-rule:evenodd;clip-rule:evenodd;fill:#7F9F86;}
	.st75{fill-rule:evenodd;clip-rule:evenodd;fill:#F7E4A4;}
	.st76{fill-rule:evenodd;clip-rule:evenodd;fill:#C4D2DB;}
	.st77{fill-rule:evenodd;clip-rule:evenodd;fill:#E7EFF5;}
	.st78{fill:none;stroke:#4D4D4D;stroke-width:3.8545;stroke-linecap:round;stroke-linejoin:round;stroke-miterlimit:10;}
	.st79{fill-rule:evenodd;clip-rule:evenodd;fill:#4D4D4D;}
	.st80{fill:none;stroke:#FFFFFF;stroke-width:3.8545;stroke-linecap:round;stroke-linejoin:round;stroke-miterlimit:10;}
	.st81{fill-rule:evenodd;clip-rule:evenodd;fill:#A7BCC9;}
	.st82{fill:none;stroke:#999999;stroke-width:2.4269;stroke-linecap:round;stroke-linejoin:round;stroke-miterlimit:10;}
	.st83{fill-rule:evenodd;clip-rule:evenodd;fill:none;stroke:#4E4E4E;stroke-miterlimit:10;}
	.st84{fill:none;stroke:#D79AA1;stroke-width:12;stroke-linecap:round;stroke-miterlimit:10;}
	.st85{fill-rule:evenodd;clip-rule:evenodd;fill:none;stroke:#4E4E4E;stroke-width:2;stroke-miterlimit:10;}
</style>
<g id="BACKGROUND">
</g>
<g id="DESIGNED_BY_FREEPIK">
</g>
<g id="OBJECTS">
	<g>
		<path class="st54" d="M688.82,508.31c-0.32-15.17-3.06-28.26-7.39-39.62c-3.46-9.06-7.94-17-13.04-23.96
			c-23.75-32.38-60.93-43.56-70.93-47.91c-2.38-1.04-4.91-1.98-7.49-2.92c1.54-2.61,2.76-5.17,3.92-7.93
			c0.2-0.45,0.41-0.93,0.61-1.44c0.07-0.17,0.13-0.34,0.2-0.51c0.14-0.35,0.28-0.72,0.42-1.1c0.08-0.21,0.15-0.42,0.23-0.63
			c0.14-0.4,0.28-0.81,0.42-1.22c0.07-0.2,0.13-0.39,0.2-0.59c0.19-0.58,0.38-1.19,0.58-1.81c0.09-0.29,0.18-0.6,0.27-0.91
			c0.11-0.36,0.22-0.73,0.33-1.1c0.11-0.36,0.21-0.73,0.32-1.11c0.09-0.32,0.18-0.65,0.27-0.99c0.11-0.41,0.23-0.83,0.34-1.25
			c0.06-0.21,0.11-0.43,0.17-0.65c0.28-1.07,0.56-2.16,0.83-3.28c0.02-0.08,0.04-0.17,0.06-0.25c0.15-0.61,0.3-1.22,0.44-1.85
			c0.03-0.14,0.07-0.29,0.1-0.43c0.83-3.52,1.62-7.24,2.37-11.03l0,0c3.87-19.51,6.51-40.81,5.39-45.21
			c-1.84-7.18-50.77-2.62-67.18-0.75c-8.93,1.06-18.35,2.31-26.71,5.66c1.08,1.01,1.3,2.9-0.41,3.69
			c-20.31,9.33-31.48,35.47-26.95,56.87c4.38,20.68,15.95,39.92,35.29,49.59c2.71,1.35,0.21,5.33-2.48,3.98
			c-21.4-10.69-36.12-34.58-38.25-58.26c-1.78-19.79,7.61-42.2,24.67-53.24c-29.87-11.59-65.7-12.09-99.5-9.32
			c-0.04,1.17-0.83,2.37-2.33,2.43c-35.7,1.28-72.13,10.03-100.63,32.59c-19.66,15.57-34.38,35.56-45.71,57.8
			c-0.71,1.39-2.11,1.39-3.11,0.7c-0.94-0.65-1.53-1.89-0.87-3.19c8.81-17.3,19.81-33.6,33.53-47.28c-1.23-2.23-2.64-4.35-4.19-6.37
			c-0.82,0.4-1.84,0.39-2.69-0.39c-17.29-16.07-38.87-25.92-62.42-28.12c-1.3-0.12-2.01-1.07-2.16-2.09
			c-2.64,1.38-2.58,6.7-3.02,9.32c-0.93,5.58-1.9,11.2-2.27,16.85c-0.08,1.19-0.1,2.36-0.1,3.54c0.53,3.83,1.12,7.59,1.74,11.15
			c0.02,0.15,0.05,0.29,0.08,0.43c0.11,0.63,0.22,1.25,0.34,1.87c0.01,0.09,0.03,0.17,0.05,0.25c0.21,1.14,0.43,2.24,0.65,3.32
			c0.04,0.22,0.09,0.44,0.13,0.66c0.09,0.43,0.18,0.85,0.27,1.27c0.07,0.34,0.14,0.67,0.22,1c0.08,0.38,0.17,0.75,0.25,1.12
			c0.09,0.38,0.17,0.75,0.26,1.12c0.07,0.31,0.15,0.62,0.22,0.92c0.16,0.63,0.31,1.24,0.47,1.84c0.06,0.21,0.11,0.41,0.17,0.62
			c0.12,0.42,0.23,0.84,0.35,1.23c0.07,0.22,0.13,0.43,0.19,0.65c0.12,0.39,0.24,0.76,0.35,1.12c0.06,0.18,0.11,0.36,0.17,0.53
			c0.17,0.52,0.35,1.01,0.53,1.47c3.24,9.15,7.13,16.21,20.75,30.33c0.48,0.5,0.99,0.97,1.53,1.44c0.17,0.15,0.35,0.29,0.53,0.43
			c0.38,0.31,0.76,0.62,1.16,0.92c0.21,0.16,0.43,0.31,0.65,0.47c0.4,0.28,0.8,0.55,1.21,0.82c0.22,0.14,0.44,0.29,0.67,0.43
			c0.47,0.29,0.96,0.57,1.46,0.85c0.17,0.1,0.34,0.2,0.52,0.3c0.57,0.31,1.15,0.6,1.74,0.89c-4.12,4.37-8.64,8.45-12.5,12.88
			c-51.54,59.22-20.17,155.4,41.68,193.01c2.69,1.63,5.41,3.16,8.16,4.64c0.64-0.94,1.87-1.49,3.13-0.74
			c18.38,10.96,41.24,15.29,62.01,19.32c12.88,2.49,25.82,4.73,38.84,6.39c0.95,0.12,2.08,0.7,2.21,1.79
			c0.96,7.98,1.92,15.96,2.88,23.93c0.04,0.36,0.01,0.69-0.07,0.99c11.05,2.17,60.43,11.89,60.4,12.08
			c3.38-9.2,7.64-24.17,9.52-30.94c4.41,0.32,7.85,0.39,9.63,0.4c33.25,0.31,93.09-10.13,96.64-10.37c0.36-0.02,1.37-0.1,2.1,0.53
			c0.34,0.29,0.6,0.69,0.73,1.19c2.99,10.73,5.95,21.49,8.99,32.22c6.52,1.28,61.91,12.17,61.96,12.39c0.45-1.21,0.9-2.49,1.37-3.87
			c3.94-11.63,33.76-115.47,37.85-129.7C686.61,544,689.22,527.49,688.82,508.31z"/>
		<path class="st55" d="M386.03,654.2c-0.09-0.74-0.18-1.48-0.27-2.22c-0.08-0.01-0.14-0.02-0.23-0.03
			c-4.34-0.59-8.68-1.23-13.01-1.92c-21.56-3.44-45.36-6.67-66.7-14.35c4.56,12.49,10.16,28.15,12.51,36.08
			c0,0,62.67,12.31,62.61,12.51c2.03-5.52,4.37-13.11,6.33-19.77C386.85,661.07,386.44,657.63,386.03,654.2z"/>
		<path class="st55" d="M520.39,656.41c2,6.81,4.35,14.8,6.28,21.31c0,0,33.98,6.67,51.87,10.27c-3.62-12.51-7.06-25.08-10.55-37.62
			C552.24,653.02,536.34,655.02,520.39,656.41z"/>
		<path class="st53" d="M322.77,689.28c4.87,15.3,9.33,18.44,26.06,18.11c6.08-0.12,17.79,1.36,23-2.44
			c3.85-2.81,7.06-15.11,8.99-20.34c0.04-0.11,0.08-0.23,0.12-0.33c0.08-0.2-62.61-12.51-62.61-12.51S322.49,688.39,322.77,689.28z"
			/>
		<path class="st53" d="M391.27,675.98c1.13,4.51,3.68,14.68,3.9,15.37c4.87,15.3,9.33,18.44,26.06,18.11
			c6.08-0.12,17.79,1.36,23-2.44c3.85-2.81,7.06-15.11,8.99-20.34c0.04-0.11,0.08-0.23,0.12-0.33c0.07-0.18-49.35-9.91-60.4-12.08
			C392.71,675.11,392.03,675.71,391.27,675.98z"/>
		<path class="st53" d="M582.9,702.69c-1.5-4.89-2.95-9.79-4.37-14.7c-17.89-3.6-51.87-10.27-51.87-10.27s4.15,16.63,4.44,17.52
			c4.87,15.3,9.33,18.44,26.06,18.11c6.08-0.12,17.79,1.36,23-2.44c1.51-1.1,2.91-3.66,4.19-6.68
			C583.71,704,583.15,703.51,582.9,702.69z"/>
		<path class="st53" d="M642.92,691.76c-0.05-0.22-55.45-11.11-61.96-12.39c2.11,7.42,4.25,14.83,6.51,22.2
			c0.23,0.75,0.09,1.37-0.25,1.84c4.24,9.57,9.66,11.74,23.6,11.46c6.08-0.12,17.79,1.36,23-2.44
			C637.74,709.57,641,696.79,642.92,691.76L642.92,691.76z"/>
	</g>
	<g>
		<path class="st69" d="M454.35,371.21c55.7,21.95,121.41,12.8,169.59-29.31c48.19-42.11,66.05-106.01,51.76-164.14
			c-55.7-21.95-121.41-12.8-169.59,29.31C457.92,249.18,440.06,313.08,454.35,371.21z"/>
		<path class="st70" d="M497.85,333.2c31.21,10.36,69.33,2.78,98.57-22.78c29.25-25.56,41.86-62.31,35.78-94.63
			c-31.21-10.36-69.33-2.78-98.57,22.78C504.38,264.12,491.77,300.87,497.85,333.2z"/>
		<path class="st69" d="M291.14,371.21c-55.7,21.95-121.41,12.8-169.59-29.31C73.37,299.79,55.5,235.89,69.79,177.76
			c55.7-21.95,121.41-12.8,169.59,29.31C287.57,249.18,305.44,313.08,291.14,371.21z"/>
		<path class="st70" d="M247.64,333.19c-31.21,10.36-69.33,2.78-98.57-22.78c-29.25-25.56-41.86-62.31-35.78-94.63
			c31.21-10.36,69.33-2.78,98.57,22.78C241.11,264.12,253.73,300.87,247.64,333.19z"/>
		<circle class="st69" cx="370.61" cy="407.76" r="235.69"/>
		<circle class="st71" cx="370.61" cy="549.14" r="73.29"/>
		<path class="st85" d="M292.74,394.88c9,0,16.34-13.64,16.34-30.37c0-16.73-7.34-30.37-16.34-30.37c-9,0-16.34,13.64-16.34,30.37
			C276.41,381.23,283.75,394.88,292.74,394.88z"/>
		<path class="st85" d="M448.7,394.88c9,0,16.34-13.64,16.34-30.37c0-16.73-7.34-30.37-16.34-30.37c-9,0-16.34,13.64-16.34,30.37
			C432.36,381.23,439.7,394.88,448.7,394.88z"/>
		<circle class="st70" cx="370.61" cy="499.75" r="103.34"/>
		<g>
			<path class="st71" d="M348.18,505.62c7.42,0,13.48-11.46,13.48-25.52c0-14.06-6.05-25.52-13.48-25.52s-13.48,11.46-13.48,25.52
				C334.7,494.16,340.75,505.62,348.18,505.62z"/>
			<path class="st71" d="M393.04,505.62c7.42,0,13.48-11.46,13.48-25.52c0-14.06-6.05-25.52-13.48-25.52s-13.48,11.46-13.48,25.52
				C379.56,494.16,385.61,505.62,393.04,505.62z"/>
		</g>
	</g>
	<path class="st84" d="M657.96,453.83c15.07-17.86,36.19-22.62,48.36-14.7c10.44,6.8,17.03,24.72,9.91,33.29
		c-4.9,5.9-16.45,7.52-21.98,2.46c-7.19-6.57-3-23.28,5.06-27.49c8.22-4.3,18.12,5.66,25.04,0.84c4.1-2.86,4.68-9.19,4.52-14.1"/>
	<rect x="230.06" y="314.7" class="st69" width="263.19" height="48.52"/>
</g>
</svg>
