<?xml version="1.0" encoding="utf-8"?>
<!-- Generator: Adobe Illustrator 27.0.1, SVG Export Plug-In . SVG Version: 6.00 Build 0)  -->
<svg version="1.1" xmlns="http://www.w3.org/2000/svg" xmlns:xlink="http://www.w3.org/1999/xlink" x="0px" y="0px"
	 viewBox="0 0 799.92 799.92" style="enable-background:new 0 0 799.92 799.92;" xml:space="preserve">
<style type="text/css">
	.st0{fill-rule:evenodd;clip-rule:evenodd;fill:#FFFFFF;}
	.st1{fill-rule:evenodd;clip-rule:evenodd;fill:#FFFDFD;}
	.st2{fill-rule:evenodd;clip-rule:evenodd;fill:#FEFCFC;}
	.st3{fill-rule:evenodd;clip-rule:evenodd;fill:#FCFAFA;}
	.st4{fill-rule:evenodd;clip-rule:evenodd;fill:#FBF9F9;}
	.st5{fill-rule:evenodd;clip-rule:evenodd;fill:#F9F8F8;}
	.st6{fill-rule:evenodd;clip-rule:evenodd;fill:#F8F6F6;}
	.st7{fill-rule:evenodd;clip-rule:evenodd;fill:#F7F5F5;}
	.st8{fill-rule:evenodd;clip-rule:evenodd;fill:#F5F3F3;}
	.st9{fill-rule:evenodd;clip-rule:evenodd;fill:#F4F2F2;}
	.st10{fill-rule:evenodd;clip-rule:evenodd;fill:#F2F1F1;}
	.st11{fill-rule:evenodd;clip-rule:evenodd;fill:#F1EFEF;}
	.st12{fill-rule:evenodd;clip-rule:evenodd;fill:#EFEEEE;}
	.st13{fill-rule:evenodd;clip-rule:evenodd;fill:#EEEDED;}
	.st14{fill-rule:evenodd;clip-rule:evenodd;fill:#EDEBEB;}
	.st15{fill-rule:evenodd;clip-rule:evenodd;fill:#EBEAEA;}
	.st16{fill-rule:evenodd;clip-rule:evenodd;fill:#EAE8E8;}
	.st17{fill-rule:evenodd;clip-rule:evenodd;fill:#E8E7E7;}
	.st18{fill-rule:evenodd;clip-rule:evenodd;fill:#E7E6E6;}
	.st19{fill-rule:evenodd;clip-rule:evenodd;fill:#E6E4E4;}
	.st20{fill-rule:evenodd;clip-rule:evenodd;fill:#E4E3E3;}
	.st21{fill-rule:evenodd;clip-rule:evenodd;fill:#E3E2E2;}
	.st22{fill-rule:evenodd;clip-rule:evenodd;fill:#E1E0E0;}
	.st23{fill-rule:evenodd;clip-rule:evenodd;fill:#E0DFDF;}
	.st24{fill-rule:evenodd;clip-rule:evenodd;fill:#DFDDDD;}
	.st25{fill-rule:evenodd;clip-rule:evenodd;fill:#DDDCDC;}
	.st26{fill-rule:evenodd;clip-rule:evenodd;fill:#DCDBDB;}
	.st27{fill-rule:evenodd;clip-rule:evenodd;fill:#DAD9D9;}
	.st28{fill-rule:evenodd;clip-rule:evenodd;fill:#D9D8D8;}
	.st29{fill-rule:evenodd;clip-rule:evenodd;fill:#D7D7D7;}
	.st30{fill-rule:evenodd;clip-rule:evenodd;fill:#D6D5D5;}
	.st31{fill-rule:evenodd;clip-rule:evenodd;fill:#D5D4D4;}
	.st32{fill-rule:evenodd;clip-rule:evenodd;fill:#D3D2D2;}
	.st33{fill-rule:evenodd;clip-rule:evenodd;fill:#D2D1D1;}
	.st34{fill-rule:evenodd;clip-rule:evenodd;fill:#D0D0D0;}
	.st35{fill-rule:evenodd;clip-rule:evenodd;fill:#CFCECE;}
	.st36{fill-rule:evenodd;clip-rule:evenodd;fill:#CECDCD;}
	.st37{fill-rule:evenodd;clip-rule:evenodd;fill:#CCCCCC;}
	.st38{fill-rule:evenodd;clip-rule:evenodd;fill:#CBCACA;}
	.st39{fill-rule:evenodd;clip-rule:evenodd;fill:#C9C9C9;}
	.st40{fill-rule:evenodd;clip-rule:evenodd;fill:#C8C7C7;}
	.st41{fill-rule:evenodd;clip-rule:evenodd;fill:#C7C6C6;}
	.st42{fill-rule:evenodd;clip-rule:evenodd;fill:#C5C5C5;}
	.st43{fill-rule:evenodd;clip-rule:evenodd;fill:#C4C3C3;}
	.st44{fill-rule:evenodd;clip-rule:evenodd;fill:#C2C2C2;}
	.st45{fill-rule:evenodd;clip-rule:evenodd;fill:#C1C1C1;}
	.st46{fill-rule:evenodd;clip-rule:evenodd;fill:#BFBFBF;}
	.st47{fill-rule:evenodd;clip-rule:evenodd;fill:#BEBEBE;}
	.st48{fill-rule:evenodd;clip-rule:evenodd;fill:#BDBCBC;}
	.st49{fill-rule:evenodd;clip-rule:evenodd;fill:#BBBBBB;}
	.st50{fill-rule:evenodd;clip-rule:evenodd;fill:#BABABA;}
	.st51{fill-rule:evenodd;clip-rule:evenodd;fill:#B8B8B8;}
	.st52{fill-rule:evenodd;clip-rule:evenodd;fill:#B7B7B7;}
	.st53{fill:#4E4E4E;}
	.st54{fill:#C68B95;}
	.st55{fill:#EFCDD2;}
	.st56{fill-rule:evenodd;clip-rule:evenodd;fill:#DC9356;}
	.st57{fill-rule:evenodd;clip-rule:evenodd;fill:#C47B40;}
	.st58{fill-rule:evenodd;clip-rule:evenodd;fill:#F5E5D7;}
	.st59{fill-rule:evenodd;clip-rule:evenodd;fill:#4E4E4E;}
	
		.st60{fill-rule:evenodd;clip-rule:evenodd;fill:none;stroke:#4E4E4E;stroke-width:3.8401;stroke-linecap:round;stroke-linejoin:round;stroke-miterlimit:22.9256;}
	
		.st61{fill-rule:evenodd;clip-rule:evenodd;fill:none;stroke:#979797;stroke-width:2.4001;stroke-linecap:round;stroke-linejoin:round;stroke-miterlimit:22.9256;}
	.st62{fill-rule:evenodd;clip-rule:evenodd;fill:#ECC751;}
	.st63{fill-rule:evenodd;clip-rule:evenodd;fill:#DEAD4B;}
	.st64{fill-rule:evenodd;clip-rule:evenodd;fill:#B7CCCD;}
	.st65{fill-rule:evenodd;clip-rule:evenodd;fill:#A0BABB;}
	.st66{fill-rule:evenodd;clip-rule:evenodd;fill:#E9F3F4;}
	.st67{fill-rule:evenodd;clip-rule:evenodd;fill:#789D9B;}
	.st68{fill-rule:evenodd;clip-rule:evenodd;fill:#87542A;}
	.st69{fill-rule:evenodd;clip-rule:evenodd;fill:#D89DA5;}
	.st70{fill-rule:evenodd;clip-rule:evenodd;fill:#EFCDD2;}
	.st71{fill-rule:evenodd;clip-rule:evenodd;fill:#BC727D;}
	.st72{fill-rule:evenodd;clip-rule:evenodd;fill:#92B09A;}
	
		.st73{fill-rule:evenodd;clip-rule:evenodd;fill:none;stroke:#4E4E4E;stroke-width:4.7999;stroke-linecap:round;stroke-linejoin:round;stroke-miterlimit:22.9256;}
	.st74{fill-rule:evenodd;clip-rule:evenodd;fill:#7F9F86;}
	.st75{fill-rule:evenodd;clip-rule:evenodd;fill:#F7E4A4;}
	.st76{fill-rule:evenodd;clip-rule:evenodd;fill:#C4D2DB;}
	.st77{fill-rule:evenodd;clip-rule:evenodd;fill:#E7EFF5;}
	.st78{fill:none;stroke:#4D4D4D;stroke-width:3.8545;stroke-linecap:round;stroke-linejoin:round;stroke-miterlimit:10;}
	.st79{fill-rule:evenodd;clip-rule:evenodd;fill:#4D4D4D;}
	.st80{fill:none;stroke:#FFFFFF;stroke-width:3.8545;stroke-linecap:round;stroke-linejoin:round;stroke-miterlimit:10;}
	.st81{fill-rule:evenodd;clip-rule:evenodd;fill:#A7BCC9;}
	.st82{fill:none;stroke:#999999;stroke-width:2.4269;stroke-linecap:round;stroke-linejoin:round;stroke-miterlimit:10;}
	.st83{fill-rule:evenodd;clip-rule:evenodd;fill:none;stroke:#4E4E4E;stroke-miterlimit:10;}
	.st84{fill:none;stroke:#D79AA1;stroke-width:12;stroke-linecap:round;stroke-miterlimit:10;}
	.st85{fill-rule:evenodd;clip-rule:evenodd;fill:none;stroke:#4E4E4E;stroke-width:2;stroke-miterlimit:10;}
</style>
<g id="BACKGROUND">
</g>
<g id="DESIGNED_BY_FREEPIK">
</g>
<g id="OBJECTS">
	<g>
		<path class="st54" d="M688.24,523.39c0.63-15.16-1.29-28.4-4.9-40c-2.89-9.26-6.86-17.46-11.52-24.72
			c-21.68-33.8-58.1-47.28-67.8-52.24c-2.31-1.18-4.78-2.28-7.29-3.38c1.7-2.51,3.07-4.99,4.4-7.67c0.23-0.43,0.46-0.91,0.7-1.4
			c0.08-0.16,0.16-0.33,0.23-0.5c0.16-0.34,0.32-0.7,0.48-1.07c0.09-0.2,0.18-0.41,0.27-0.62c0.17-0.39,0.33-0.79,0.5-1.19
			c0.08-0.19,0.16-0.38,0.24-0.58c0.23-0.57,0.46-1.16,0.69-1.77c0.11-0.29,0.22-0.59,0.33-0.89c0.39-1.06,0.4-1.06,0.39-1.08
			c-0.28-0.85-11.56,5.3-21.29,2.51c0,0-1.93-0.55-11.38-6l0,0c5.32,2.84,5.69,3.79,5.69,3.79c1.14,2.98-3.7,7.34-3.79,7.27
			c-0.07-0.05,2.73-2.66,3.79-7.27c0.44-1.93,0.09-2.04,0.32-5.69c0.4-6.39,1.62-7.98,0.63-11.06c-0.54-1.69-1.49-3.04-2.53-4.11
			c6.21-5.69,12.43-11.38,18.64-17.06c22.87-16.2,25.71-23.75,24.32-27.65c-4.09-11.42-49.95-5.9-67.01-4.94
			c-8.98,0.5-18.46,1.16-27.01,3.98c1.01,1.08,1.12,2.98-0.64,3.65c-20.86,8.04-33.63,33.43-30.45,55.07
			c3.08,20.92,13.42,40.84,32.13,51.7c2.62,1.52-0.13,5.33-2.73,3.82c-20.69-12.01-33.89-36.76-34.54-60.53
			c-0.54-19.86,10.23-41.65,27.95-51.6c-29.09-13.43-64.81-16.17-98.72-15.52c-0.11,1.17-0.97,2.32-2.48,2.28
			c-35.71-0.96-72.62,5.5-102.47,26.25c-20.59,14.31-36.54,33.35-49.23,54.83c-0.79,1.35-2.19,1.26-3.15,0.51
			c-0.9-0.7-1.41-1.98-0.67-3.24c9.88-16.72,21.87-32.3,36.42-45.09c-1.09-2.3-2.36-4.51-3.79-6.62c-0.84,0.35-1.86,0.28-2.66-0.56
			c-16.25-17.12-37.18-28.29-60.54-31.96c-1.29-0.2-1.94-1.19-2.02-2.22c-2.72,1.21-2.99,6.52-3.59,9.12
			c-1.28,5.51-2.6,11.06-3.31,16.68c-0.15,1.18-0.24,2.35-0.32,3.53c0.29,3.86,0.64,7.65,1.04,11.24c0.02,0.15,0.03,0.29,0.05,0.44
			c0.07,0.63,0.15,1.26,0.22,1.89c0.01,0.09,0.02,0.17,0.03,0.26c0.14,1.15,0.29,2.26,0.44,3.36c0.03,0.22,0.06,0.44,0.09,0.66
			c0.06,0.44,0.12,0.86,0.19,1.28c0.05,0.34,0.1,0.68,0.15,1.01c0.06,0.38,0.12,0.76,0.18,1.14c0.06,0.38,0.13,0.76,0.19,1.13
			c0.05,0.31,0.11,0.63,0.16,0.93c0.12,0.64,0.23,1.26,0.35,1.86c0.04,0.22,0.09,0.42,0.13,0.63c0.09,0.43,0.18,0.85,0.27,1.25
			c0.05,0.22,0.1,0.44,0.15,0.66c0.09,0.39,0.19,0.77,0.28,1.14c0.05,0.18,0.09,0.36,0.14,0.54c0.14,0.53,0.29,1.03,0.43,1.5
			c2.67,9.34,6.1,16.62,18.82,31.56c0.45,0.52,0.93,1.03,1.43,1.53c0.16,0.16,0.33,0.31,0.5,0.47c0.36,0.34,0.72,0.67,1.1,0.99
			c0.2,0.17,0.41,0.34,0.62,0.51c0.38,0.3,0.76,0.6,1.16,0.89c0.21,0.16,0.42,0.32,0.64,0.47c0.45,0.32,0.93,0.63,1.4,0.94
			c0.17,0.11,0.33,0.22,0.5,0.33c0.55,0.34,1.11,0.68,1.68,1c-4.38,4.1-9.15,7.89-13.28,12.08
			c-55.13,55.88-29.83,153.84,29.55,195.23c2.58,1.8,5.2,3.5,7.86,5.14c0.7-0.9,1.96-1.38,3.17-0.55
			c17.66,12.09,40.21,17.84,60.68,23.15c12.7,3.29,25.48,6.33,38.36,8.8c0.94,0.18,2.04,0.83,2.1,1.92
			c0.46,8.02,0.92,16.05,1.38,24.07c0.02,0.36-0.03,0.69-0.13,0.99c10.89,2.86,59.57,15.64,59.53,15.83
			c3.94-8.97,9.13-23.64,11.43-30.28c4.38,0.6,7.82,0.88,9.58,1c33.17,2.38,93.54-4.3,97.1-4.32c0.36,0,1.38-0.02,2.07,0.66
			c0.32,0.31,0.55,0.73,0.66,1.23c2.32,10.9,4.59,21.82,6.96,32.71c6.42,1.68,61.03,16.01,61.07,16.23
			c0.52-1.18,1.05-2.43,1.61-3.78c4.66-11.36,40.91-113.14,45.87-127.09C683.8,558.87,687.44,542.56,688.24,523.39z"/>
		<path class="st55" d="M376.92,650.09c-0.04-0.74-0.08-1.49-0.13-2.23c-0.08-0.02-0.14-0.03-0.22-0.05
			c-4.3-0.86-8.59-1.77-12.87-2.73c-21.3-4.78-44.85-9.49-65.67-18.49c3.77,12.75,8.38,28.73,10.24,36.8c0,0,61.78,16.2,61.7,16.4
			c2.37-5.38,5.18-12.81,7.55-19.34C377.32,657,377.12,653.55,376.92,650.09z"/>
		<path class="st55" d="M510.88,660.69c1.57,6.92,3.41,15.04,4.94,21.66c0,0,33.5,8.78,51.13,13.49
			c-2.84-12.71-5.48-25.47-8.18-38.21C542.89,659.29,526.89,660.3,510.88,660.69z"/>
		<path class="st53" d="M311.6,681.16c3.91,15.57,8.16,18.98,24.88,19.7c6.08,0.26,17.67,2.47,23.1-1
			c4.01-2.56,7.99-14.64,10.25-19.74c0.05-0.11,0.1-0.23,0.14-0.33c0.09-0.2-61.71-16.4-61.71-16.4S311.37,680.25,311.6,681.16z"/>
		<path class="st53" d="M380.8,672.16c0.85,4.57,2.76,14.88,2.93,15.58c3.9,15.57,8.16,18.98,24.88,19.7
			c6.08,0.26,17.67,2.47,23.1-1c4.01-2.56,7.99-14.64,10.24-19.74c0.05-0.11,0.1-0.23,0.14-0.33c0.08-0.18-48.64-12.97-59.53-15.83
			C382.29,671.38,381.58,671.94,380.8,672.16z"/>
		<path class="st53" d="M570.39,710.78c-1.19-4.97-2.33-9.95-3.44-14.94c-17.63-4.71-51.13-13.49-51.13-13.49s3.11,16.85,3.34,17.76
			c3.91,15.57,8.16,18.98,24.88,19.7c6.08,0.26,17.67,2.47,23.1-1c1.57-1,3.14-3.47,4.6-6.4
			C571.11,712.14,570.59,711.62,570.39,710.78z"/>
		<path class="st53" d="M630.97,703.62c-0.04-0.22-54.65-14.55-61.07-16.23c1.64,7.54,3.31,15.06,5.11,22.56
			c0.18,0.76,0.01,1.37-0.36,1.82c3.63,9.82,8.91,12.32,22.83,12.91c6.08,0.26,17.67,2.47,23.1-1
			C624.68,721.07,628.74,708.52,630.97,703.62L630.97,703.62z"/>
	</g>
	<path class="st84" d="M668.34,469.27c20.35-7.64,29.14-5.75,33.15-1.72c7.15,7.19-1.46,20.61,7.06,29.98
		c6.35,7,18.65,7.78,27.04,4.7c7.07-2.6,11.3-7.91,15.29-12.93c4.08-5.13,6.51-10.08,7.96-13.63"/>
	<g>
		<path class="st69" d="M454.35,371.21c55.7,21.95,121.41,12.8,169.59-29.31c48.19-42.11,66.05-106.01,51.76-164.14
			c-55.7-21.95-121.41-12.8-169.59,29.31C457.92,249.18,440.06,313.08,454.35,371.21z"/>
		<path class="st70" d="M497.85,333.2c31.21,10.36,69.33,2.78,98.57-22.78c29.25-25.56,41.86-62.31,35.78-94.63
			c-31.21-10.36-69.33-2.78-98.57,22.78C504.38,264.12,491.77,300.87,497.85,333.2z"/>
		<path class="st69" d="M291.14,371.21c-55.7,21.95-121.41,12.8-169.59-29.31C73.37,299.79,55.5,235.89,69.79,177.76
			c55.7-21.95,121.41-12.8,169.59,29.31C287.57,249.18,305.44,313.08,291.14,371.21z"/>
		<path class="st70" d="M247.64,333.19c-31.21,10.36-69.33,2.78-98.57-22.78c-29.25-25.56-41.86-62.31-35.78-94.63
			c31.21-10.36,69.33-2.78,98.57,22.78C241.11,264.12,253.73,300.87,247.64,333.19z"/>
		<circle class="st69" cx="370.61" cy="407.76" r="235.69"/>
		<circle class="st71" cx="370.61" cy="549.14" r="73.29"/>
		<path class="st59" d="M292.74,394.88c9,0,16.34-13.64,16.34-30.37c0-16.73-7.34-30.37-16.34-30.37c-9,0-16.34,13.64-16.34,30.37
			C276.41,381.23,283.75,394.88,292.74,394.88z"/>
		<path class="st59" d="M448.7,394.88c9,0,16.34-13.64,16.34-30.37c0-16.73-7.34-30.37-16.34-30.37c-9,0-16.34,13.64-16.34,30.37
			C432.36,381.23,439.7,394.88,448.7,394.88z"/>
		<path class="st0" d="M287.35,382.75c2.94,0,5.34-2.4,5.34-5.34c0-2.94-2.4-5.34-5.34-5.34c-2.94,0-5.34,2.4-5.34,5.34
			C282.01,380.35,284.41,382.75,287.35,382.75z"/>
		<path class="st0" d="M444.14,382.75c2.94,0,5.34-2.4,5.34-5.34c0-2.94-2.4-5.34-5.34-5.34c-2.94,0-5.34,2.4-5.34,5.34
			C438.8,380.35,441.19,382.75,444.14,382.75z"/>
		<circle class="st70" cx="370.61" cy="499.75" r="103.34"/>
		<g>
			<path class="st71" d="M348.18,505.62c7.42,0,13.48-11.46,13.48-25.52c0-14.06-6.05-25.52-13.48-25.52s-13.48,11.46-13.48,25.52
				C334.7,494.16,340.75,505.62,348.18,505.62z"/>
			<path class="st71" d="M393.04,505.62c7.42,0,13.48-11.46,13.48-25.52c0-14.06-6.05-25.52-13.48-25.52s-13.48,11.46-13.48,25.52
				C379.56,494.16,385.61,505.62,393.04,505.62z"/>
		</g>
	</g>
	<rect x="230.06" y="314.7" class="st69" width="263.19" height="48.52"/>
</g>
</svg>
